<?xml version="1.0" encoding="UTF-8" standalone="no"?>
<!-- Generator: Adobe Illustrator 13.0.1, SVG Export Plug-In . SVG Version: 6.00 Build 14948)  -->
<!DOCTYPE svg  PUBLIC '-//W3C//DTD SVG 1.1//EN'  'http://www.w3.org/Graphics/SVG/1.1/DTD/svg11.dtd'>
<svg id="Layer_1" xmlns="http://www.w3.org/2000/svg" xml:space="preserve" height="40.177px" viewBox="0 0 75.502 40.177" width="75.502px" version="1.1" y="0px" x="0px" xmlns:xlink="http://www.w3.org/1999/xlink" enable-background="new 0 0 75.502 40.177">
	<defs>
		<rect id="SVGID_1_" width="75.5" height="40.177"/>
	</defs>
	<clipPath id="SVGID_2_">
		<use overflow="visible" xlink:href="#SVGID_1_"/>
	</clipPath>
	<g clip-path="url(#SVGID_2_)">
		<defs>
			<rect id="SVGID_3_" y="1.623" width="75.502" height="36.931"/>
		</defs>
		<clipPath id="SVGID_4_">
			<use overflow="visible" xlink:href="#SVGID_3_"/>
		</clipPath>
		<path fill="#0E2B89" d="m37.762 33.08c17.357 0 31.747-6.441 31.747-13.115 0-6.776-14.39-13.114-31.747-13.114s-31.748 6.337-31.748 13.114c0 6.673 14.391 13.115 31.748 13.115" clip-path="url(#SVGID_4_)"/>
		<polyline fill="#fff" points="38.588 8.837 38.588 31.412 38.514 31.412 36.026 31.412 36.026 22.519 30.109 22.519 30.109 31.011 29.92 31 27.621 30.681 27.471 30.656 27.471 9.365 29.958 9.002 30.146 9 30.146 20.031 35.989 20.031 35.989 8.724 36.008 8.536 38.577 8.536" clip-path="url(#SVGID_4_)"/>
			<polygon clip-path="url(#SVGID_4_)" points="38.588 8.837 38.588 31.412 38.514 31.412 36.026 31.412 36.026 22.519 30.109 22.519 30.109 31.011 29.92 31 27.621 30.681 27.471 30.656 27.471 9.365 29.958 9.002 30.146 9 30.146 20.031 35.989 20.031 35.989 8.724 36.008 8.536 38.577 8.536" stroke="#fff" stroke-linecap="square" stroke-miterlimit="2" stroke-width="0" fill="none"/>
		<polyline fill="#fff" points="23.362 10.093 23.362 29.968 23.174 29.927 20.932 29.363 15.185 17.796 15.203 18.033 15.203 27.525 14.995 27.451 12.771 26.371 12.771 13.574 15.231 12.449 15.585 12.284 20.799 22.293 20.799 10.752 23.249 10.119" clip-path="url(#SVGID_4_)"/>
			<polygon clip-path="url(#SVGID_4_)" points="23.362 10.093 23.362 29.968 23.174 29.927 20.932 29.363 15.185 17.796 15.203 18.033 15.203 27.525 14.995 27.451 12.771 26.371 12.771 13.574 15.231 12.449 15.585 12.284 20.799 22.293 20.799 10.752 23.249 10.119" stroke="#fff" stroke-linecap="square" stroke-miterlimit="2" stroke-width="0" fill="none"/>
		<path fill="#fff" d="m52.874 12.606c0.904 2.148 0.829 5.05-0.604 6.935-0.904 1.319-2.434 2.354-3.855 2.752l4.647 7.462-2.614 0.666s-3.402-5.477-5.211-8.19v8.85l-2.578 0.219-0.188-0.006v-22.567l0.339-0.003c3.882 0.038 8.028 0.226 10.064 3.882m-7.5-1.281l-0.189 0.017v8.803c1.922 0.113 3.656-0.453 4.863-1.922 0.791-1.131 1.13-2.79 0.564-4.108-0.904-2.036-3.09-2.79-5.238-2.79z" clip-path="url(#SVGID_4_)"/>
			<path d="m52.874 12.606c0.904 2.148 0.829 5.05-0.604 6.935-0.904 1.319-2.434 2.354-3.855 2.752l4.647 7.462-2.614 0.666s-3.402-5.477-5.211-8.19v8.85l-2.578 0.219-0.188-0.006v-22.567l0.339-0.003c3.882 0.038 8.028 0.226 10.064 3.882zm-7.5-1.281l-0.189 0.017v8.803c1.922 0.113 3.656-0.453 4.863-1.922 0.791-1.131 1.13-2.79 0.564-4.108-0.904-2.036-3.09-2.79-5.238-2.79z" clip-path="url(#SVGID_4_)" stroke="#fff" stroke-linecap="square" stroke-miterlimit="2" stroke-width="0" fill="none"/>
		<path fill="#fff" d="m60.821 12.496l3.628 12.744-2.104 1.201-0.307 0.164-0.91-3.578h-3.141l-0.872 5.533-2.261 0.73-0.33 0.094 2.873-18.114 0.866 0.28m0.902 4.22l-0.777 4.978h2.119l-1.342-4.978z" clip-path="url(#SVGID_4_)"/>
			<path d="m60.821 12.496l3.628 12.744-2.104 1.201-0.307 0.164-0.91-3.578h-3.141l-0.872 5.533-2.261 0.73-0.33 0.094 2.873-18.114 0.866 0.28 2.558 0.946zm-1.656 3.274l-0.777 4.978h2.119l-1.342-4.978z" clip-path="url(#SVGID_4_)" stroke="#fff" stroke-linecap="square" stroke-miterlimit="2" stroke-width="0" fill="none"/>
		<path fill="#FC1922" d="m4.907 20.057c0-2.967 2.264-5.834 6.545-8.294l0.203-0.117-1.84-4.226-0.251 0.138c-6.168 3.372-9.564 7.811-9.564 12.499 0 5.046 3.868 9.73 10.891 13.189l0.261 0.129 1.678-4.283c-5.109-2.569-7.923-5.779-7.923-9.035" clip-path="url(#SVGID_4_)"/>
		<path fill="#FC1922" d="m64.743 6.935l-0.241-0.12-0.112 0.246-1.794 3.923 0.224 0.114c5.015 2.556 7.777 5.738 7.777 8.959 0 3.428-3.075 6.763-8.658 9.392l-0.234 0.111 1.811 3.955 0.238-0.111c7.578-3.563 11.75-8.301 11.75-13.347-0.002-5.01-3.822-9.67-10.761-13.122" clip-path="url(#SVGID_4_)"/>
		<path fill="#FC1922" fill-rule="evenodd" clip-rule="evenodd" d="m12.535 33.957l1.585 0.568c1.09 0.389 2.372-0.229 2.771-1.344 0.396-1.109-0.205-2.398-1.294-2.787l-1.585-0.568m-0.08 3.603l0.825-2.309 0.248 0.088c0.712 0.254 1.013 0.879 0.765 1.572-0.25 0.699-0.879 0.992-1.591 0.738l-0.247-0.089z" clip-path="url(#SVGID_4_)"/>
		<path fill="#FC1922" fill-rule="evenodd" clip-rule="evenodd" d="m19.852 34.634c0.641 0.012 1.073-0.328 1.233-0.965 0.088-0.352 0.041-0.73-0.127-1.029-0.183-0.324-0.467-0.518-0.952-0.641l-1.716-0.432-1.07 4.256 1.103 0.277 0.411-1.633 0.641 1.896 1.378 0.348m-1.84-2.958l0.267-1.059 0.204 0.051c0.427 0.107 0.633 0.369 0.549 0.701s-0.382 0.467-0.816 0.357l-0.204-0.05z" clip-path="url(#SVGID_4_)"/>
		<path fill="#FC1922" fill-rule="evenodd" clip-rule="evenodd" d="m24.656 36.687l0.146 0.801 1.198 0.211-0.864-4.605-1.224-0.217-2.42 4.027 1.186 0.211 0.431-0.699m1.393-0.637l-0.933-0.164 0.716-1.297 0.217 1.461z" clip-path="url(#SVGID_4_)"/>
		<path fill="#FC1922" d="m29.189 35.625l-0.108 0.883 0.927 0.113c-0.134 0.494-0.472 0.711-0.987 0.646-0.679-0.082-1.092-0.709-0.994-1.512 0.096-0.785 0.65-1.307 1.297-1.227 0.438 0.053 0.71 0.313 0.849 0.807l1.131-0.313c-0.309-0.885-0.88-1.354-1.808-1.467-1.403-0.172-2.479 0.656-2.65 2.047-0.168 1.371 0.663 2.426 2.041 2.596 0.914 0.113 1.657-0.213 2.123-0.932 0.221-0.344 0.33-0.695 0.426-1.365" clip-path="url(#SVGID_4_)"/>
		<path fill="#FC1922" fill-rule="evenodd" clip-rule="evenodd" d="m38.34 36.708c0.621-0.158 0.947-0.6 0.933-1.258-0.009-0.361-0.154-0.713-0.396-0.957-0.263-0.266-0.587-0.375-1.087-0.365l-1.77 0.041 0.1 4.385 1.137-0.025-0.037-1.684 1.123 1.66 1.42-0.033m-2.561-2.363l-0.023-1.092 0.21-0.004c0.44-0.01 0.708 0.188 0.716 0.529s-0.244 0.553-0.691 0.563l-0.212 0.004z" clip-path="url(#SVGID_4_)"/>
		<path fill="#FC1922" fill-rule="evenodd" clip-rule="evenodd" d="m43.368 37.55l0.33 0.744 1.215-0.076-1.923-4.275-1.241 0.078-1.404 4.484 1.201-0.076 0.254-0.779m1.204-0.947l-0.945 0.061 0.392-1.43 0.553 1.369z" clip-path="url(#SVGID_4_)"/>
		<path fill="#FC1922" d="m48.101 33.583c-0.433-0.105-0.715-0.125-1.054-0.078-1.276 0.18-2.156 1.34-1.978 2.609 0.179 1.277 1.335 2.123 2.644 1.939 0.293-0.041 0.463-0.105 0.967-0.355l-0.188-1.334c-0.25 0.354-0.542 0.541-0.913 0.594-0.671 0.094-1.235-0.332-1.33-1.002-0.099-0.697 0.32-1.268 0.997-1.363 0.391-0.055 0.732 0.057 1.044 0.338" clip-path="url(#SVGID_4_)"/>
		<polyline fill="#FC1922" points="50.163 33.068 49.042 33.265 49.803 37.585 50.924 37.388" clip-path="url(#SVGID_4_)"/>
		<polyline fill="#FC1922" points="52.401 37.021 53.508 36.765 52.906 34.15 55.553 36.292 56.663 36.037 55.676 31.763 54.567 32.017 55.17 34.632 52.522 32.49 51.414 32.746" clip-path="url(#SVGID_4_)"/>
		<path fill="#FC1922" d="m59.129 32.689l0.275 0.844 0.888-0.287c0.088 0.504-0.127 0.844-0.621 1.004-0.651 0.211-1.29-0.184-1.54-0.953-0.244-0.75 0.038-1.457 0.657-1.658 0.419-0.137 0.776-0.018 1.11 0.373l0.894-0.762c-0.654-0.672-1.37-0.855-2.259-0.566-1.346 0.438-1.97 1.643-1.537 2.977 0.428 1.313 1.627 1.918 2.947 1.49 0.875-0.285 1.41-0.895 1.529-1.742 0.055-0.406 0.006-0.77-0.191-1.418" clip-path="url(#SVGID_4_)"/>
		<path fill="#FC1922" d="m14.362 5.758c-0.422 0.01-0.685 0.061-0.983 0.187-1.124 0.477-1.645 1.754-1.17 2.873 0.477 1.125 1.742 1.616 2.895 1.127 0.258-0.109 0.398-0.21 0.797-0.562l-0.499-1.176c-0.141 0.385-0.363 0.628-0.69 0.767-0.591 0.25-1.212 0-1.462-0.591-0.261-0.613-0.018-1.238 0.579-1.491 0.344-0.146 0.684-0.127 1.038 0.054" clip-path="url(#SVGID_4_)"/>
		<polyline fill="#FC1922" points="17.221 6.312 16.75 4.775 15.72 5.089 16.935 9.064 17.966 8.749 17.467 7.116 18.962 6.659 19.461 8.292 20.492 7.977 19.277 4.002 18.246 4.317 18.716 5.854" clip-path="url(#SVGID_4_)"/>
		<path fill="#FC1922" fill-rule="evenodd" clip-rule="evenodd" d="m23.783 6.487l0.424 0.644 1.123-0.259-2.459-3.698-1.147 0.265-0.62 4.408 1.111-0.256 0.117-0.769m0.981-1.071l-0.874 0.202 0.145-1.395 0.729 1.193z" clip-path="url(#SVGID_4_)"/>
		<polyline fill="#FC1922" points="25.764 6.989 26.822 6.821 26.798 4.402 28.121 6.615 28.545 6.548 29.162 4.028 29.838 6.344 30.903 6.175 29.637 2.167 28.572 2.336 28.039 4.667 26.861 2.607 25.809 2.773" clip-path="url(#SVGID_4_)"/>
		<path fill="#FC1922" fill-rule="evenodd" clip-rule="evenodd" d="m32.698 4.669l0.67-0.059c0.919-0.08 1.361-0.607 1.28-1.525-0.036-0.422-0.203-0.751-0.491-0.977-0.289-0.231-0.584-0.299-1.068-0.257l-1.707 0.149 0.362 4.14 1.074-0.094m-0.196-2.24l-0.09-1.037 0.359-0.032c0.392-0.034 0.605 0.122 0.635 0.458 0.032 0.366-0.134 0.543-0.55 0.58l-0.354 0.031z" clip-path="url(#SVGID_4_)"/>
		<polyline fill="#FC1922" points="36.532 1.623 35.454 1.661 35.599 5.814 36.676 5.777" clip-path="url(#SVGID_4_)"/>
		<path fill="#FC1922" fill-rule="evenodd" clip-rule="evenodd" d="m40.004 1.633c-1.313-0.069-2.346 0.832-2.412 2.088-0.066 1.264 0.867 2.267 2.181 2.336 1.313 0.069 2.345-0.832 2.411-2.095s-0.867-2.26-2.18-2.329m-0.054 1.046c0.646 0.034 1.143 0.584 1.108 1.225-0.034 0.647-0.583 1.142-1.231 1.108-0.646-0.034-1.143-0.584-1.107-1.231 0.032-0.641 0.582-1.136 1.23-1.102z" clip-path="url(#SVGID_4_)"/>
		<polyline fill="#FC1922" points="42.909 6.078 43.981 6.19 44.247 3.662 45.958 6.398 47.03 6.511 47.464 2.378 46.392 2.265 46.126 4.793 44.416 2.057 43.343 1.944" clip-path="url(#SVGID_4_)"/>
		<path fill="#FC1922" d="m51.268 3.15c-0.383-0.274-0.824-0.456-1.256-0.516-0.832-0.117-1.479 0.365-1.596 1.191-0.049 0.358 0.018 0.638 0.196 0.846 0.136 0.151 0.304 0.256 0.753 0.458 0.48 0.218 0.607 0.343 0.576 0.565-0.035 0.241-0.26 0.373-0.576 0.328-0.314-0.044-0.598-0.223-0.885-0.552l-0.577 0.8c0.39 0.363 0.866 0.594 1.366 0.664 1.012 0.142 1.681-0.318 1.811-1.243 0.084-0.592-0.165-0.973-0.852-1.284-0.348-0.162-0.39-0.18-0.441-0.213-0.174-0.112-0.251-0.23-0.232-0.36 0.027-0.197 0.252-0.323 0.506-0.288 0.246 0.035 0.451 0.152 0.664 0.376" clip-path="url(#SVGID_4_)"/>
		<polyline fill="#FC1922" points="53.271 4.954 53.604 3.381 52.551 3.157 51.686 7.223 52.741 7.447 53.096 5.777 54.625 6.102 54.27 7.772 55.325 7.996 56.189 3.931 55.135 3.707 54.8 5.279" clip-path="url(#SVGID_4_)"/>
		<polyline fill="#FC1922" points="58.489 4.557 57.452 4.26 56.307 8.255 57.342 8.552" clip-path="url(#SVGID_4_)"/>
		<path fill="#FC1922" fill-rule="evenodd" clip-rule="evenodd" d="m59.776 7.846l0.636 0.219c0.872 0.3 1.489-0.001 1.79-0.873 0.138-0.401 0.119-0.77-0.053-1.092-0.17-0.329-0.41-0.51-0.869-0.669l-1.621-0.558-1.354 3.929 1.02 0.352m0.732-2.127l0.339-0.984 0.343 0.117c0.371 0.128 0.502 0.358 0.393 0.676-0.119 0.348-0.344 0.442-0.738 0.306l-0.337-0.115z" clip-path="url(#SVGID_4_)"/>
		<path fill="#fff" fill-rule="evenodd" clip-rule="evenodd" d="m64.82 31.927c0.823 0 1.526-0.639 1.526-1.514 0-0.867-0.703-1.506-1.526-1.506-0.831 0-1.534 0.639-1.534 1.506 0 0.876 0.703 1.514 1.534 1.514m-1.23-1.513c0-0.715 0.539-1.254 1.229-1.254 0.683 0 1.223 0.539 1.223 1.254 0 0.727-0.54 1.262-1.223 1.262-0.69-0.001-1.229-0.536-1.229-1.262zm0.91 0.119h0.304l0.459 0.756h0.296l-0.496-0.768c0.256-0.031 0.452-0.166 0.452-0.479 0-0.344-0.204-0.496-0.615-0.496h-0.663v1.742h0.263v-0.755zm0-0.223v-0.539h0.359c0.184 0 0.379 0.039 0.379 0.256 0 0.268-0.199 0.283-0.423 0.283h-0.315z" clip-path="url(#SVGID_4_)"/>
	</g>
</svg>
